# xmcd
#
# Track frame offsets:
#	150
#	12513
#	22302
#	37033
#	53696
#	70427
#	95153
#	114412
#	126685
#	139817
#	151804
#	166317
#	177194
#	189668
#	205597
#	218584
#	235940
#	247233
#	257246
#	267492
#
# Disc length: 3707 seconds
#
# Revision: 0
# Processed by: cddbd v1.5.2PL0 Copyright (c) Steve Scherf et al.
# Submitted via: audiograbber 1.83.01
#
DISCID=340e7914
DTITLE=Henri Salvador - Le petit indien 51-56
DYEAR=2009
DGENRE=Chanson
TTITLE0=Le bungalow du bengali
TTITLE1=Boum ¡
TTITLE2=Le petit indien
TTITLE3=Gin et television
TTITLE4=Elle me donne (ah ¡ ah ¡)
TTITLE5=Cocktail de succes
TTITLE6=Telephone a)le distrait b)le ratelier
TTITLE7=Encore un verre de fine
TTITLE8=Je vous aime
TTITLE9=La lecon de comedie
TTITLE10=Le petit souper aux chandelles
TTITLE11=Ne me laissez pas comme ca
TTITLE12=Le rire - Salvador s'amuse
TTITLE13=La belle au bois dormant
TTITLE14=Pierrot et Colombine
TTITLE15=Cendrillon
TTITLE16=Pas encore
TTITLE17=Il n'y a plus d'amandes
TTITLE18=Bonjour sourire
TTITLE19=L'ombrelle et le parapluie
EXTD=Integrale Fremeaux Vol 3 CD2
EXTT0=
EXTT1=
EXTT2=
EXTT3=
EXTT4=
EXTT5=
EXTT6=
EXTT7=
EXTT8=
EXTT9=
EXTT10=
EXTT11=
EXTT12=
EXTT13=
EXTT14=
EXTT15=
EXTT16=
EXTT17=
EXTT18=
EXTT19=
PLAYORDER=
